<svg xmlns="http://www.w3.org/2000/svg" viewBox="0 0 641.9 641.9"><defs><style>.cls-1{fill:#fff;}.cls-2{fill:#343434;}</style></defs><g id="Capa_2" data-name="Capa 2"><g id="Capa_1-2" data-name="Capa 1"><circle class="cls-1" cx="320.95" cy="320.95" r="320.95"></circle><path class="cls-2" d="M78.81,233.53c26.28,0,43,13.09,43,33.62s-15.22,33.63-39,33.63H42.35v-1.15a20.18,20.18,0,0,1,.09-2l1.07-.09c3.89-.44,6.28-6.81,6.28-16.19V253c0-9.38-2.39-15.75-6.28-16.19l-1.07-.09c-.06-.67-.09-1.35-.09-2v-1.15Zm-12,4.24v58.76H82.7c13.54,0,22.13-11.42,22.13-29.38s-10.18-29.38-26.11-29.38Z"></path><path class="cls-2" d="M124.74,299.63c0-1.24.08-2,.08-2l1.07-.09c4.07-.44,6.28-7.34,6.28-16.81,0-13.1-1-15.84-6.28-18.49l-1.07-.53a7.71,7.71,0,0,1-.08-1.07l19.73-7.78h3v28.4c0,9.38,2.39,15.75,6.28,16.19l1.06.09a17.41,17.41,0,0,1,.09,2v1.15H124.74Zm5.92-62.48c0-5.13,3.28-8.4,8.41-8.4s8.41,3.27,8.41,8.4-3.28,8.41-8.41,8.41S130.66,242.29,130.66,237.15Z"></path><path class="cls-2" d="M157.74,284.49c.44,0,.71.09,1.33.09,2.21,5.76,7.87,13.72,15.75,13.72,5.22,0,8.58-2.83,8.58-7.26,0-2.92-3.54-6.19-9.11-8.31-9.73-3.72-16.11-10.18-16.11-15.67,0-9,8.59-15.84,22.66-15.84,4.42,0,11.85,1.6,15.13,5.22L195.53,268h-1.6c-2.83-5.4-6.28-13-12.74-13.36s-10.35,3.45-10.53,7.16c-.09,3.54,5.84,6,15.13,9.56,6.73,2.66,11.06,8.41,11.06,14.07,0,10-9,16.28-23.18,16.28-6,0-11.86-1.86-15.4-4.69Z"></path><path class="cls-2" d="M199,299.63a20.18,20.18,0,0,1,.09-2l1.06-.09c3.89-.44,6.28-6.81,6.28-16.19V258.83h-7.17v-6h7.17c.8-16.73,6.64-24.6,23.54-24.34,9.11.09,17.69,5.49,18.23,11.15,0,4.16-2.66,6.82-6.82,6.82-4.33,0-8.94-2.84-7.7-6.82s1.07-7.78-5.66-7.52c-3.27.09-6.37,8-6.37,17.61v3.19H237v6h-15.4V281.4c0,9.38,2.39,15.75,6.28,16.19l1.06.09a17.33,17.33,0,0,1,.09,2v1.16H199Z"></path><path class="cls-2" d="M239.59,299.63a20.18,20.18,0,0,1,.09-2l1.06-.09c4.07-.44,6.28-7.34,6.28-16.9,0-13-1-15.75-6.28-18.4l-1.06-.53a6.44,6.44,0,0,1-.09-1.07l19.65-7.78h3V265c5.14-11.06,22.13-33.18,48.41-32.12,5,.17,8,3,8,8.31a6.53,6.53,0,0,1-8.67,6.2,37.19,37.19,0,0,0-13.19-2.48c-17.87,0-29.37,14.6-34.42,25.13V281.4c0,9.38,2.39,15.75,6.29,16.19l1.06.09c.06.68.09,1.36.09,2v1.15H239.68v-1.23Z"></path><path class="cls-2" d="M275.08,265.38h22.65v30.26c0,5,3.45,8.06,10.35,8.06a5.08,5.08,0,0,0,4-2V285.47c.09-9.47-2.3-16.46-6.28-16.9l-1.06-.09a17.41,17.41,0,0,1-.09-2v-1.15h22.65v20.18c0,13,1,15.75,6.29,18.4l1.06.53a6.44,6.44,0,0,1,.09,1.07l-19.65,7.78h-2.92v-8.54c-4.51,5.67-9.64,9.12-15.93,9.12-9.11,0-13.62-6.55-13.62-16.55V284.89c0-9.38-2.39-15.75-6.29-16.19l-1.06-.09a19.57,19.57,0,0,1-.09-2v-1.15Z"></path><path class="cls-2" d="M333.12,258.83v-1.68c5.13-1.06,12.83-8,19.29-18h2.48v13.63h14.42v6H354.89s-.09,20.71-.09,29.82c0,4.61,1.15,5.76,5.49,5.76,1.86,0,5.84-1.15,9.2-5.84l1.15,1.32c-5.66,9.74-14.25,11.33-18,11.33-10.35,0-13.36-3.19-13.36-15.22V258.83Z"></path><path class="cls-2" d="M400.28,273.79v-8.23c0-5.4-1.5-8.85-3.89-8.85-4.69,0-7,5-6.1,12.39a30.76,30.76,0,0,1-7.44,1.15A36,36,0,0,1,375,269.1c-1.33-9.91,9-17.08,24.86-16.55,10.09.36,16.55,6.37,16.55,16.46v18.14c0,4.51.8,7.43,4.16,7.43,2.48,0,3.8-.79,4.51-2.21l1.68,2c-2.65,4.6-6.9,7.52-16.55,7.52-4.33,0-7.69-1.86-8.93-5.14a29.2,29.2,0,0,1-14.87,4.61c-8.05,0-13.45-6.11-13.45-12.57C373,276.62,390.82,274.23,400.28,273.79Zm-4.42,20.26a8.12,8.12,0,0,0,4.51-1.33l-.09-15.92c-5.84,0-11.94,2.74-11.94,9.73a7.28,7.28,0,0,0,7,7.56h.51Z"></path><path class="cls-2" d="M465.76,270.07c0-5.13-2.74-11.24-7.16-11.24-2.22,0-4.87,1.6-7.7,5.49v17c0,9.38,2.3,15.75,6.19,16.19l1,.09v3.19H428.25v-1.15c0-1.24.08-2,.08-2l1.07-.09c4.07-.44,6.28-7.34,6.28-16.9,0-13-1-15.75-6.28-18.4l-1.07-.53a5.51,5.51,0,0,1-.08-1.07l19.64-7.78h3v7.25c2.74-3.8,9.56-7.78,18.4-7.78,8.5,0,11.68,6.28,11.68,16.19v19.11c0,8.94.18,11.51.18,12.57,0,3.54.36,13.09,4.69,14.6,5.49,1.77,9-3.54,11.68-6.29a5.88,5.88,0,0,1,4.43-1.76c3,0,6.19,1.85,6.63,5,.8,5.58-2.83,8.94-8.32,10.26a31.59,31.59,0,0,1-7.25.8,26.78,26.78,0,0,1-13.89-3.54c-2.92-1.86-13.45-7.17-13.45-23.09v-26Z"></path><path class="cls-2" d="M485.94,280.16c0-17,10.18-27.79,26.1-27.79a14.41,14.41,0,0,1,8.23,2.75c-.17-10.36-1.32-12.92-6.28-15.31l-1.06-.53a6.32,6.32,0,0,1-.09-1.06l19.64-7.79h3V273c0,13,1,15.75,6.28,18.41l1.07.53a6.23,6.23,0,0,1,.09,1.06l-19.65,7.79h-3v-7.17c-4.16,4.69-9.38,7.7-14.07,7.7C493.81,301.31,485.94,293.08,485.94,280.16Zm28.67,11.77a12.19,12.19,0,0,0,5.66-1.24V261.4a10.77,10.77,0,0,0-8.93-4.87c-5.76,0-9.47,6.91-9.47,17.88C501.87,285.11,506.82,291.93,514.61,291.93Z"></path><path class="cls-2" d="M545.05,276.89c0-14.87,10.53-24.52,27.25-24.52,16.55-.08,27.26,9.47,27.26,24.34S589,301.22,572.48,301.22C555.76,301.31,545.14,291.84,545.05,276.89Zm27.34,20.88c6.55,0,10.71-8.23,10.62-21.06s-4.25-21-10.8-21S561.51,264,561.6,276.8s4.33,21.06,10.79,21Z"></path><path class="cls-2" d="M111.29,371.3c.44,0,.7.09,1.32.09,2.13,5.49,7.52,13.1,15,13.1,5,0,8.14-2.66,8.14-6.91,0-2.83-3.36-5.84-8.67-7.87-9.29-3.45-15.22-9.65-15.22-14.87,0-8.58,8.14-15,21.5-15,4.16,0,11.24,1.5,14.33,4.95l-.44,11H145.8c-2.66-5.05-6-12.39-12-12.66s-9.91,3.28-10,6.82c-.09,3.36,5.58,5.66,14.34,9.11,6.37,2.48,10.44,8,10.44,13.36,0,9.47-8.58,15.49-22,15.49-5.67,0-11.24-1.77-14.69-4.52Z"></path><path class="cls-2" d="M150.57,385.64a14.31,14.31,0,0,1,.09-1.86l1-.09c3.89-.44,6-7,6-15.93,0-12.48-.88-15-6-17.52l-1-.53a8,8,0,0,1-.09-1l18.76-7.35h2.92v27c0,8.85,2.3,15,6,15.4l1,.09a14.48,14.48,0,0,1,.09,1.86v1.06H150.57v-1.19Zm5.58-59.29c0-4.87,3.1-8,8-8s8,3.09,8,8-3.1,8-8,8S156.15,331.26,156.15,326.35Z"></path><path class="cls-2" d="M180.57,385.64a14.31,14.31,0,0,1,.09-1.86l1-.09c3.9-.44,6-7,6-16,0-12.39-.88-14.95-6-17.43l-1-.53a5.31,5.31,0,0,1-.09-1l18.67-7.35h2.92v6.9c2.57-3.62,9.12-7.34,17.43-7.34,8.06,0,11.06,6,11.06,15.4v12.12c0,8.85,2.31,14.95,6,15.4l1,.08a16.53,16.53,0,0,1,.08,1.86v1.06H210v-3l.62-.09c3.71-.62,5.66-6.46,5.66-15.4V357.67c0-4.86-2.56-10.7-6.81-10.7-2.13,0-4.6,1.5-7.26,5.22v16.23c0,8.85,2.21,15,5.84,15.4l.89.09v3H180.57v-1.28Z"></path><path class="cls-2" d="M273.22,390.59c-4.78-2.12-7.7-5.75-7.7-10.35,0-5,2.3-7.88,6-9.65-4.87-2.83-7.79-7.16-7.79-12.65,0-9.91,9.29-17.17,22.21-17.17a28.3,28.3,0,0,1,14.86,3.9c1.6-3.81,4-8.59,8-9.21,4.87-.7,7,1.51,7.87,5.31.71,3.1-2.3,5.4-4.24,4.78-2.3-.71-4.07-2.12-6.29-2.12a6.52,6.52,0,0,0-4.24,1.86c4.42,3,7.16,7.52,7.16,12.56,0,9.73-10.26,16-23,16a32.81,32.81,0,0,1-9.74-1.42,4,4,0,0,0-.79,2.66c0,2.12,2.3,3.45,6,3.71,0,0,9.56.09,11,.18,11.23.8,20.08,6.55,20.53,14.25.88,13.8-14.43,20.52-30,20.17-8.5-.18-19.29-4-19.73-12.12C262.78,395,266.93,391.65,273.22,390.59ZM284,410c11.15,0,17.79-3.45,16.55-10.44-.8-4.78-5.75-6.1-13.19-6.72-4-.27-6.54,0-9.73-.71-2.92.62-4.78,2.92-4.78,8.05C272.77,404.93,276.49,410,284,410Zm-6.72-52c0,7.7,4,12.75,8.67,12.75s9.56-5.05,9.56-12.75-4.87-13.8-9.56-13.8-8.67,6-8.67,13.76Z"></path><path class="cls-2" d="M333.57,319.89h2.92v48.4c0,8.85,2.3,15,6,15.4l1,.09a16.33,16.33,0,0,1,.08,1.86v1.06H314.81v-1.06a16.33,16.33,0,0,1,.08-1.86l1-.09c3.71-.44,6-6.46,6-15.4V346.35c0-12.48-.88-15.05-6-17.52l-1-.53a6.48,6.48,0,0,1-.08-1Z"></path><path class="cls-2" d="M339.49,341.3H361v28.76c0,4.69,3.27,7.7,9.91,7.7a5.12,5.12,0,0,0,3.8-1.86V360.51c.09-8.94-2.21-15.67-6-16l-1-.09q-.09-.93-.09-1.86v-1.06h21.5v19.11c0,12.39.89,15,6,17.44l1,.53a6.24,6.24,0,0,1,.08,1l-18.67,7.34h-2.92v-8.14c-4.24,5.4-9.2,8.68-15.13,8.68-8.67,0-13-6.2-13-15.76V359.71c0-8.85-2.3-15-6-15.4l-1-.09a16.26,16.26,0,0,1-.08-1.85V341.3Z"></path><path class="cls-2" d="M395.33,346c6.9,2,12.39-8.76,16.81-17.61h3.19v12.75c11.59-7.79,33-20.71,48.93-20.71a19.89,19.89,0,0,1,10.35,2.48c4.07,2.39,7,7,4.25,11.15a8.46,8.46,0,0,1-6.72,4.07,4.94,4.94,0,0,1-3.63-1.59c-3.63-4.08-8.5-5.76-14-5.76-12.75,0-28.76,8.76-39.38,15.13v1s-.09,19.64-.09,28.31c0,4.43,1.06,5.49,5.22,5.49,1.77,0,5.58-1.06,8.76-5.57l1.06,1.32c-5.39,9.29-13.53,10.8-17.07,10.8-9.91,0-12.75-3-12.66-14.43l.09-21.85a10.69,10.69,0,0,1-5.31-1Z"></path><path class="cls-2" d="M456,340.77c12.83,0,21.15,9.21,21.15,23.36l-30.88.53c1.41,8.85,6.37,15.84,18.85,15,2.65-.18,6.72-2.48,10.08-7.35l1.6,1.42c-5.23,9.91-15.67,13.63-22.83,13.63-14.25,0-23.36-8.14-23.36-21C430.55,350.77,440.46,340.77,456,340.77Zm-10.09,20.62h11.95c10.26-.44,7.61-16.55-2.66-16.55C449.39,344.84,445.77,351.61,445.94,361.39Z"></path><path class="cls-2" d="M479.13,385.64a16.33,16.33,0,0,1,.08-1.86l1-.09c3.89-.44,6-7,6-16,0-12.39-.88-14.95-6-17.43l-1-.53a6.35,6.35,0,0,1-.08-1l18.67-7.35h2.92v6.9c2.56-3.62,9.11-7.34,17.43-7.34,8.05,0,11.06,6,11.06,15.4v12.12c0,8.85,2.3,14.95,6,15.4l1,.08q.09.93.09,1.86v1.06H508.5v-3l.62-.09c3.72-.62,5.67-6.46,5.67-15.4V357.67c0-4.86-2.57-10.7-6.82-10.7-2.12,0-4.6,1.5-7.25,5.22v16.23c0,8.85,2.21,15,5.84,15.4l.88.09v3H479.13v-1.28Z"></path><path class="cls-2" d="M143.8,530.48a7.68,7.68,0,0,0-3.28-3.81c-3.15-2.1-7-1.44-9.59,2.5s-2,7.75,1.31,9.85a9.14,9.14,0,0,0,5,1.45l-.65,1.7a10.34,10.34,0,0,1-5.13-1.7c-4.2-2.76-5.12-7.62-2-12.22s8-5.65,12.09-2.89a11,11,0,0,1,3.68,4.2Z"></path><path class="cls-2" d="M152,553c-4.21-2.37-5.65-7.36-3-12.09s7.62-6.17,11.95-3.68,5.65,7.36,3,12.09S156.28,555.44,152,553Zm8-14.45c-3.41-2-7.35-.66-9.46,3.15s-1.18,8,2.24,10,7.35.66,9.46-3.15,1.27-8.08-2.24-10Z"></path><path class="cls-2" d="M189.66,554.39l-11.57,11.3-1.84-.79,1.06-16.16-6.7,13.8-1.58-.79,7.75-15.63,2.23,1-1,16.42L189.66,552l2.1,1-6.83,16-1.71-.79Z"></path><path class="cls-2" d="M196,573.44l6-16.29,9.85,3.68-.53,1.58-8.27-3-2.24,5.91,6.84,2.49-.53,1.58-6.83-2.5-2.24,5.92,8.28,3-.52,1.58Z"></path><path class="cls-2" d="M218.17,581.2l-1.71-.53,5-16.69,4.47,1.32c4.07,1.18,5.52,3.68,4.6,6.7a5.12,5.12,0,0,1-5.26,3.55l2.5,8.54-2-.66-2.24-8.15-3.41-.79Zm5.38-7.49c2.24.52,4.6-.14,5.26-2.24s-.66-3.81-3.55-4.73c-.13,0-2.63-.79-2.63-.79l-2.1,7Z"></path><path class="cls-2" d="M252.33,584.87a1.4,1.4,0,0,1-1.07-1.67v0a1.28,1.28,0,0,1,1.41-1.13,1.46,1.46,0,0,1,.3.07,1.42,1.42,0,0,1-.65,2.76Z"></path><path class="cls-2" d="M283.46,594.6l-2.1-.27-4.47-18,1.84.14,3.94,16.16L290,577.78l1.84.13Z"></path><path class="cls-2" d="M299.75,595.91l.92-17.47,1.71.13L301.46,596Z"></path><path class="cls-2" d="M326.69,596.7h-1.84l-1.71-5-7.88-.14-2,5h-1.84l6.83-17.35h2.1Zm-7.36-15.9-3.55,9.07,6.7.13Z"></path><path class="cls-2" d="M339,596.44a7.15,7.15,0,0,1-3.94-.92l.26-1.71a6.27,6.27,0,0,0,3.68.92c2.23-.13,3.41-1.58,3.15-4.34l-.66-11.95,1.71-.14.66,12.09C344,593.81,342.59,596.17,339,596.44Z"></path><path class="cls-2" d="M369.12,593.15l-1.83.26-2.5-4.73-7.88.92-1.19,5.13-1.84.26,4.47-18.13,2.1-.26Zm-9.32-14.71-2.24,9.46,6.57-.79Z"></path><path class="cls-2" d="M381,591.05l-1.71.39L376,574.36s4.46-.92,4.59-.92c4.21-.78,6.57.79,7.23,3.81.53,2.63-.92,4.47-3,5.52l6.17,6.44-2,.39-5.78-6.17-3.41.92Zm1.44-9.07c2.24-.52,3.95-2.1,3.55-4.33s-2.36-3.16-5.25-2.5c-.14,0-2.63.53-2.63.53l1.31,7.09Z"></path><path class="cls-2" d="M413.14,578.57a1.32,1.32,0,0,1-1.66-.85,1.46,1.46,0,0,1-.05-.2,1.29,1.29,0,0,1,.76-1.66l.16-.05a1.32,1.32,0,0,1,1.68.84l0,.08A1.53,1.53,0,0,1,413.14,578.57Z"></path><path class="cls-2" d="M445.06,572.92l-2,.79-12.35-13.93,1.71-.66,10.91,12.48-.4-16.55,1.71-.66Z"></path><path class="cls-2" d="M460.17,566.61,453,550.71l1.57-.78,7.23,15.89Z"></path><path class="cls-2" d="M478.44,557.68l-1.84.92-13.67-12.48,1.58-.79,12.22,11.3-2.24-16.43,1.58-.78Z"></path><path class="cls-2" d="M492.76,549.79l-8.81-15,1.58-.92,8.8,15Z"></path><path class="cls-2" d="M505.89,541.65l-1.44,1.05-9.59-14.58s3.81-2.5,3.94-2.63c3.55-2.37,6.44-1.84,8,.66,1.45,2.23.79,4.46-.65,6.3L514.3,536l-1.71,1.18-7.75-3.55-2.76,2.11Zm-2.1-8.94c1.84-1.31,2.89-3.54,1.58-5.38s-3.29-2-5.91-.26c-.14,0-2.24,1.44-2.24,1.44l3.94,6Z"></path><path class="cls-2" d="M223.8,77.13l-2.5-7.62-9.72,3.16,2.49,7.62-1.71.52L207,64.26l1.71-.53,2.49,7.49,9.72-3.15-2.49-7.49,1.71-.53,5.38,16.56Z"></path><path class="cls-2" d="M235.88,73.72l-4.2-16.95,10.25-2.63.39,1.58-8.54,2.1,1.58,6L242.45,62l.4,1.58-7.1,1.84,1.58,6,8.54-2.1.39,1.58Z"></path><path class="cls-2" d="M255.85,69,252.7,51.78l1.71-.4,2.89,15.51,8.54-1.58L266.1,67Z"></path><path class="cls-2" d="M275.3,65.7l-2.1-17.34,10.51-1.31.26,1.57-8.67,1.05.79,6.18,7.22-.92.26,1.58-7.22.92.79,6.17,8.67-1.05.26,1.58Z"></path><path class="cls-2" d="M306.57,45.47l1.7-.13.92,17.6-2,.14L296.45,48.49l.79,14.85-1.71.13L294.61,46l2-.14,10.64,14.46Z"></path><path class="cls-2" d="M333.5,62.81h-1.84l-1.71-5-7.88-.13-2,5h-1.84l7-17.47h2.1Zm-7.36-15.76-3.54,9.06,6.7.13Z"></path><path class="cls-2" d="M362.8,65.83c-4.86-.65-8-4.73-7.36-10.11s4.73-8.54,9.72-7.89,8,4.73,7.36,10S367.79,66.49,362.8,65.83Zm2.1-16.42c-3.81-.52-7.09,2.1-7.62,6.44s1.84,7.88,5.78,8.41,7.1-2.1,7.62-6.57S368.84,49.94,364.9,49.41Z"></path><path class="cls-2" d="M390.39,65.57c.39-2-1.05-3.15-3.55-4.47-2.23-1.18-4.6-2.75-3.94-5.78.53-2.76,3.28-4.2,6.44-3.54a10.11,10.11,0,0,1,4.86,2.49l-.92,1.45a8.45,8.45,0,0,0-4.21-2.37c-2.62-.52-4.07.66-4.33,2.11-.4,1.83,1.18,2.89,3.68,4.33,2.36,1.18,4.6,2.89,3.94,5.91-.53,2.76-3.42,4.47-6.83,3.81a9.73,9.73,0,0,1-5.13-2.76l.92-1.44a9,9,0,0,0,4.6,2.63,3.49,3.49,0,0,0,4.42-2.2Z"></path><path class="cls-2" d="M400.64,72.67l4.59-16.82,10.25,2.76-.39,1.57L406.68,58l-1.58,6,7.1,2-.4,1.57-7.09-2-1.58,6.05,8.41,2.23-.39,1.58Zm10-17.08-1.18-.4,4.47-3.94,2.1.53Z"></path><path class="cls-2" d="M429.93,76.87c.66-2-.65-3.28-3-4.86-2.1-1.45-4.2-3.29-3.28-6.31.92-2.62,3.81-3.68,6.83-2.76A9.3,9.3,0,0,1,435,66.1l-1.05,1.31a8.27,8.27,0,0,0-3.81-2.89c-2.5-.79-4.08.13-4.6,1.58-.66,1.84.79,3,3,4.73s4.2,3.41,3.15,6.43c-.92,2.76-3.94,3.95-7.22,2.9a10.21,10.21,0,0,1-4.73-3.29l1.18-1.31a9.37,9.37,0,0,0,4.2,3.15C427.31,79.37,429.41,78.58,429.93,76.87Z"></path></g></g></svg>